<svg width="32" height="35" viewBox="0 0 32 35" fill="none" xmlns="http://www.w3.org/2000/svg">
<path d="M12.7426 5.95864C11.4888 5.31418 10.1747 4.99194 8.80033 4.99194C6.51655 4.99194 4.59006 5.77656 3.02086 7.34578C1.45161 8.915 0.666992 10.8415 0.666992 13.1252C0.666992 13.9697 0.78667 14.8137 1.02603 15.6573C1.26534 16.5009 1.61064 17.3312 2.06193 18.1483C2.25508 17.8458 2.47986 17.577 2.73626 17.3419C2.99268 17.1069 3.28327 16.9108 3.60803 16.7535C3.30547 16.1398 3.07299 15.533 2.91059 14.9329C2.74819 14.3329 2.66699 13.7304 2.66699 13.1252C2.66699 11.4005 3.25801 9.94705 4.44006 8.76498C5.62213 7.58293 7.07555 6.99191 8.80033 6.99191C10.3866 6.99191 11.7016 7.44233 12.7452 8.34318C13.7888 9.24402 14.8738 10.3936 16.0003 11.7919C17.1268 10.4073 18.2119 9.26113 19.2555 8.35345C20.2991 7.44576 21.614 6.99191 23.2003 6.99191C24.9251 6.99191 26.3785 7.58293 27.5606 8.76498C28.7426 9.94705 29.3337 11.4005 29.3337 13.1252C29.3337 13.7133 29.2525 14.3052 29.0901 14.9009C28.9277 15.4966 28.6909 16.1099 28.3798 16.7407C28.7046 16.8894 28.9977 17.0833 29.2591 17.3224C29.5205 17.5616 29.747 17.8326 29.9387 18.1355C30.39 17.2928 30.7353 16.4539 30.9746 15.6188C31.214 14.7838 31.3336 13.9526 31.3336 13.1252C31.3336 10.8415 30.549 8.915 28.9798 7.34578C27.4106 5.77656 25.4841 4.99194 23.2003 4.99194C21.826 4.99194 20.5119 5.31418 19.258 5.95864C18.0042 6.60309 16.9183 7.51591 16.0003 8.69711C15.0824 7.51591 13.9965 6.60309 12.7426 5.95864Z" fill="#232323"/>
<path d="M0.998759 28.6858C1.21991 28.9069 1.49396 29.0175 1.82089 29.0175L6.41063 29.0175V27.1668C6.41063 26.6656 6.46947 26.1907 6.58716 25.7421C6.70485 25.2936 6.89044 24.8743 7.14393 24.4842C6.91659 24.4398 6.68155 24.4086 6.43879 24.3906C6.19606 24.3727 5.93925 24.3637 5.66836 24.3637C4.16796 24.3637 2.9593 24.6432 2.04239 25.2022C1.1255 25.7611 0.667059 26.491 0.667059 27.3919V27.8637C0.667059 28.1906 0.777625 28.4646 0.998759 28.6858Z" fill="#232323"/>
<path d="M9.01193 28.671C9.24184 28.902 9.53035 29.0175 9.87746 29.0175H22.1285C22.4699 29.0175 22.7561 28.902 22.9871 28.671C23.2181 28.4401 23.3336 28.1538 23.3336 27.8124V27.2175C23.3336 25.944 22.6623 24.9171 21.3195 24.1368C19.9768 23.3564 18.202 22.9663 15.9953 22.9663C13.8089 22.9663 12.0409 23.3564 10.6914 24.1368C9.34181 24.9171 8.66703 25.944 8.66703 27.2175V27.8124C8.66703 28.1538 8.78199 28.4401 9.01193 28.671Z" fill="#232323"/>
<path d="M25.59 27.1668V29.0175H30.1798C30.5067 29.0175 30.7807 28.9069 31.0019 28.6858C31.223 28.4646 31.3336 28.1906 31.3336 27.8637V27.3919C31.3336 26.491 30.8753 25.7611 29.9586 25.2022C29.042 24.6432 27.8336 24.3637 26.3336 24.3637C26.0602 24.3637 25.8025 24.3727 25.5606 24.3906C25.3187 24.4086 25.0841 24.4398 24.8567 24.4842C25.0921 24.8743 25.2732 25.2936 25.3999 25.7421C25.5267 26.1907 25.59 26.6656 25.59 27.1668Z" fill="#232323"/>
<path d="M4.05936 22.3985C4.50036 22.8454 5.03625 23.0688 5.66703 23.0688C6.29458 23.0688 6.8318 22.8454 7.27869 22.3985C7.72558 21.9516 7.94903 21.4144 7.94903 20.7868C7.94903 20.1593 7.72638 19.622 7.28109 19.1751C6.8358 18.7282 6.29778 18.5048 5.66703 18.5048C5.03625 18.5048 4.50036 18.7282 4.05936 19.1751C3.61834 19.622 3.39783 20.1593 3.39783 20.7868C3.39783 21.4144 3.61834 21.9516 4.05936 22.3985Z" fill="#232323"/>
<path d="M24.7196 22.3985C25.1649 22.8454 25.7029 23.0688 26.3336 23.0688C26.9644 23.0688 27.5003 22.8454 27.9413 22.3985C28.3823 21.9516 28.6028 21.4144 28.6028 20.7868C28.6028 20.1593 28.3823 19.622 27.9413 19.1751C27.5003 18.7282 26.9644 18.5048 26.3336 18.5048C25.7061 18.5048 25.1688 18.7282 24.722 19.1751C24.2751 19.622 24.0516 20.1593 24.0516 20.7868C24.0516 21.4144 24.2743 21.9516 24.7196 22.3985Z" fill="#232323"/>
<path d="M13.5484 20.9567C14.2215 21.6297 15.0388 21.9663 16.0003 21.9663C16.9619 21.9663 17.7792 21.6297 18.4522 20.9567C19.1253 20.2836 19.4618 19.4663 19.4618 18.5048C19.4618 17.5433 19.1253 16.726 18.4522 16.0529C17.7792 15.3798 16.9619 15.0433 16.0003 15.0433C15.0388 15.0433 14.2215 15.3798 13.5484 16.0529C12.8754 16.726 12.5388 17.5433 12.5388 18.5048C12.5388 19.4663 12.8754 20.2836 13.5484 20.9567Z" fill="#232323"/>
</svg>
