<svg width="36" height="39" viewBox="0 0 36 39" fill="none" xmlns="http://www.w3.org/2000/svg">
<path d="M16.2594 20.5785L16.3632 21.5629C16.3782 21.7386 16.4471 21.8826 16.5699 21.9948C16.6928 22.107 16.8436 22.1631 17.0223 22.1631H18.0936C18.2722 22.1631 18.423 22.107 18.5459 21.9948C18.6687 21.8826 18.7376 21.7386 18.7526 21.5629L18.8564 20.5785C19.1443 20.5056 19.414 20.3995 19.6655 20.2602C19.9169 20.1209 20.1315 19.9484 20.3091 19.7428L21.1925 20.1466C21.344 20.2195 21.4993 20.2342 21.6585 20.1907C21.8177 20.1472 21.9429 20.0493 22.0339 19.897L22.5695 18.9744C22.6574 18.8229 22.6846 18.669 22.6513 18.5127C22.6179 18.3563 22.5346 18.2223 22.4012 18.1106L21.6076 17.5301C21.7123 17.2328 21.7646 16.9355 21.7646 16.6382C21.7646 16.3409 21.7123 16.0437 21.6076 15.7464L22.4012 15.1659C22.5346 15.0542 22.6179 14.9202 22.6513 14.7638C22.6846 14.6074 22.6574 14.4535 22.5695 14.3021L22.0339 13.3794C21.9429 13.2271 21.8177 13.1292 21.6585 13.0857C21.4993 13.0422 21.344 13.0569 21.1925 13.1298L20.3091 13.5337C20.1315 13.328 19.9169 13.1555 19.6655 13.0162C19.414 12.8769 19.1443 12.7708 18.8564 12.6979L18.7526 11.7136C18.7376 11.5378 18.6687 11.3939 18.5459 11.2817C18.423 11.1695 18.2722 11.1134 18.0936 11.1134H17.0223C16.8436 11.1134 16.6928 11.1695 16.5699 11.2817C16.4471 11.3939 16.3782 11.5378 16.3632 11.7136L16.2594 12.6979C15.9715 12.7708 15.7018 12.8769 15.4504 13.0162C15.1989 13.1555 14.9843 13.328 14.8067 13.5337L13.9233 13.1298C13.7719 13.0569 13.6165 13.0422 13.4573 13.0857C13.2981 13.1292 13.173 13.2271 13.082 13.3794L12.5463 14.3021C12.4584 14.4535 12.4312 14.6074 12.4645 14.7638C12.4979 14.9202 12.5812 15.0542 12.7146 15.1659L13.5083 15.7464C13.4036 16.0437 13.3512 16.3409 13.3512 16.6382C13.3512 16.9355 13.4036 17.2328 13.5083 17.5301L12.7146 18.1106C12.5812 18.2223 12.4979 18.3563 12.4645 18.5127C12.4312 18.669 12.4584 18.8229 12.5463 18.9744L13.082 19.897C13.173 20.0493 13.2981 20.1472 13.4573 20.1907C13.6165 20.2342 13.7719 20.2195 13.9233 20.1466L14.8067 19.7428C14.9843 19.9484 15.1989 20.1209 15.4504 20.2602C15.7018 20.3995 15.9715 20.5056 16.2594 20.5785ZM9.53711 26.0725C8.15169 24.8086 7.07617 23.3601 6.31055 21.7269C5.54492 20.0938 5.16211 18.3942 5.16211 16.6281C5.16211 13.1876 6.36726 10.2633 8.77757 7.85494C11.1879 5.4466 14.1146 4.24243 17.5579 4.24243C20.3904 4.24243 22.9233 5.08892 25.1566 6.7819C27.3899 8.47488 28.8403 10.6713 29.5078 13.371L31.2117 20.1006C31.3209 20.5164 31.2437 20.894 30.9801 21.2333C30.7165 21.5727 30.365 21.7424 29.9256 21.7424H27.037V26.3978C27.037 27.1228 26.7789 27.7434 26.2626 28.2596C25.7464 28.7759 25.1258 29.034 24.4008 29.034H21.2037V30.8569C21.2037 31.1668 21.0988 31.4266 20.8891 31.6362C20.6794 31.8459 20.4195 31.9507 20.1095 31.9507C19.7994 31.9507 19.5397 31.8459 19.3303 31.6362C19.1209 31.4266 19.0162 31.1668 19.0162 30.8569V28.1716C19.0162 27.7912 19.1426 27.4752 19.3952 27.2238C19.6478 26.9723 19.9609 26.8466 20.3344 26.8466H24.4008C24.5317 26.8466 24.6392 26.8045 24.7234 26.7203C24.8075 26.6362 24.8496 26.5287 24.8496 26.3978V20.873C24.8496 20.4995 24.9759 20.1865 25.2285 19.9338C25.4812 19.6812 25.7942 19.5549 26.1677 19.5549H28.7871L27.4017 13.9039C26.8426 11.6827 25.647 9.88175 23.8147 8.50102C21.9825 7.12027 19.8969 6.4299 17.5579 6.4299C14.7385 6.4299 12.3322 7.41563 10.3392 9.3871C8.3461 11.3586 7.34957 13.756 7.34957 16.5794C7.34957 18.0353 7.64732 19.4184 8.2428 20.7287C8.83829 22.0391 9.68291 23.2038 10.7767 24.223L11.7246 25.0966V30.8569C11.7246 31.1668 11.6197 31.4266 11.41 31.6362C11.2003 31.8459 10.9404 31.9507 10.6303 31.9507C10.3203 31.9507 10.0606 31.8459 9.85123 31.6362C9.64182 31.4266 9.53711 31.1668 9.53711 30.8569V26.0725Z" fill="#232323"/>
</svg>
