<svg width="32" height="33" viewBox="0 0 32 33" fill="none" xmlns="http://www.w3.org/2000/svg">
<path d="M15.167 28.0836C14.5225 26.2169 13.7448 24.8114 12.8337 23.8669C11.9225 22.9225 10.5225 22.1281 8.63366 21.4836C8.72255 22.5503 8.92255 23.4892 9.23366 24.3003C9.54477 25.1114 9.94477 25.7614 10.4337 26.2503C10.8114 26.6281 11.1725 26.9225 11.517 27.1336C11.8614 27.3447 12.2225 27.5169 12.6003 27.6503C12.9781 27.7836 13.3781 27.8781 13.8003 27.9336C14.2225 27.9892 14.6781 28.0392 15.167 28.0836ZM16.8337 28.0836C18.9892 27.8836 20.5781 27.2725 21.6003 26.2503C22.6225 25.2281 23.2337 23.6392 23.4337 21.4836C22.4781 21.8169 21.6448 22.1836 20.9337 22.5836C20.2225 22.9836 19.6448 23.4058 19.2003 23.8503C18.867 24.1836 18.5837 24.5114 18.3503 24.8336C18.117 25.1558 17.9114 25.4836 17.7337 25.8169C17.5559 26.1503 17.4003 26.5003 17.267 26.8669C17.1337 27.2336 16.9892 27.6392 16.8337 28.0836ZM14.667 29.9836C12.4448 29.9836 10.5559 29.2058 9.00033 27.6503C7.44477 26.0947 6.66699 24.2058 6.66699 21.9836V19.3169C8.24477 19.2947 9.73366 19.6169 11.1337 20.2836C12.5337 20.9503 13.7114 21.8503 14.667 22.9836V17.9086C12.7559 17.6031 11.167 16.7081 9.90033 15.2237C8.63366 13.7393 8.00033 11.9926 8.00033 9.98361V4.75028C8.00033 4.30772 8.20033 3.99709 8.60033 3.81838C9.00033 3.63964 9.35588 3.69472 9.66699 3.98361L12.667 6.58361L15.2337 3.48361C15.431 3.23917 15.6859 3.11694 15.9983 3.11694C16.3108 3.11694 16.567 3.23917 16.767 3.48361L19.3337 6.58361L22.3337 3.98361C22.6448 3.69472 23.0003 3.63964 23.4003 3.81838C23.8003 3.99709 24.0003 4.30772 24.0003 4.75028V9.98361C24.0003 11.9921 23.367 13.7383 22.1003 15.2223C20.8337 16.7063 19.2448 17.6045 17.3337 17.9169V22.9836C18.2892 21.8503 19.467 20.9503 20.867 20.2836C22.267 19.6169 23.7559 19.2947 25.3337 19.3169V21.9836C25.3337 24.2058 24.5559 26.0947 23.0003 27.6503C21.4448 29.2058 19.5559 29.9836 17.3337 29.9836H14.667Z" fill="#232323"/>
</svg>
