<svg width="15" height="15" viewBox="0 0 15 15" fill="none" xmlns="http://www.w3.org/2000/svg">
<path d="M14.084 7.47995C14.0827 7.28647 14.0392 7.0955 13.9566 6.92053C13.874 6.74556 13.7542 6.59077 13.6056 6.46682L7.04062 0.916654C6.86878 0.783269 6.65314 0.719226 6.43635 0.737169C6.21955 0.755113 6.0174 0.853725 5.86983 1.01355C5.79839 1.08981 5.74303 1.17969 5.70701 1.27778C5.67099 1.37586 5.65503 1.48022 5.66012 1.58459C5.66522 1.68896 5.69129 1.79127 5.73669 1.88538C5.7821 1.97949 5.84594 2.06345 5.92446 2.1324L10.9971 6.42272C11.0192 6.4399 11.035 6.46385 11.0422 6.49091C11.0494 6.51796 11.0474 6.54667 11.0367 6.57253C11.0273 6.60116 11.009 6.62596 10.9844 6.6434C10.9598 6.66084 10.9303 6.66999 10.9002 6.66942H0.849193C0.739578 6.66431 0.630057 6.68143 0.527271 6.71986C0.424484 6.75828 0.330541 6.81723 0.251161 6.893C0.17178 6.96876 0.10861 7.05978 0.0654384 7.16067C0.0222667 7.26155 0 7.37022 0 7.47995C0 7.58969 0.0222667 7.69825 0.0654384 7.79913C0.10861 7.90002 0.17178 7.99104 0.251161 8.0668C0.330541 8.14257 0.424484 8.20152 0.527271 8.23994C0.630057 8.27837 0.739578 8.29549 0.849193 8.29038H10.8984C10.9285 8.28995 10.958 8.29909 10.9825 8.31651C11.0071 8.33393 11.0255 8.35872 11.035 8.38727C11.0456 8.41315 11.0474 8.44177 11.0402 8.46879C11.0331 8.49581 11.0173 8.51981 10.9953 8.53708L5.92268 12.8274C5.80536 12.9158 5.71516 13.0353 5.66222 13.1723C5.60928 13.3093 5.59576 13.4584 5.62318 13.6027C5.65269 13.749 5.72151 13.8846 5.82224 13.9948C5.92297 14.105 6.0518 14.1856 6.19492 14.2281C6.33971 14.2717 6.4932 14.2776 6.64089 14.2452C6.78859 14.2128 6.92561 14.1433 7.0389 14.0431L13.6056 8.49299C13.7542 8.36903 13.874 8.21424 13.9566 8.03927C14.0392 7.8643 14.0827 7.67344 14.084 7.47995Z" fill="#CE0E2D"/>
</svg>
