<svg width="15" height="15" viewBox="0 0 15 15" fill="none" xmlns="http://www.w3.org/2000/svg">
<path d="M14.084 7.47994C14.0827 7.28645 14.0392 7.09548 13.9566 6.92051C13.874 6.74554 13.7542 6.59076 13.6056 6.4668L7.04062 0.916639C6.86878 0.783253 6.65314 0.71921 6.43635 0.737154C6.21955 0.755098 6.0174 0.853709 5.86983 1.01353C5.79839 1.0898 5.74303 1.17967 5.70701 1.27776C5.67099 1.37585 5.65503 1.4802 5.66012 1.58457C5.66522 1.68894 5.69129 1.79125 5.73669 1.88536C5.7821 1.97948 5.84594 2.06344 5.92446 2.13238L10.9971 6.42271C11.0192 6.43988 11.035 6.46383 11.0422 6.49089C11.0494 6.51795 11.0474 6.54665 11.0367 6.57251C11.0273 6.60114 11.009 6.62594 10.9844 6.64338C10.9598 6.66082 10.9303 6.66997 10.9002 6.66941H0.849193C0.739578 6.6643 0.630057 6.68142 0.527271 6.71984C0.424484 6.75827 0.330541 6.81722 0.251161 6.89298C0.17178 6.96875 0.10861 7.05977 0.0654384 7.16065C0.0222667 7.26154 0 7.37021 0 7.47994C0 7.58967 0.0222667 7.69824 0.0654384 7.79912C0.10861 7.9 0.17178 7.99102 0.251161 8.06679C0.330541 8.14255 0.424484 8.2015 0.527271 8.23993C0.630057 8.27835 0.739578 8.29548 0.849193 8.29036H10.8984C10.9285 8.28994 10.958 8.29908 10.9825 8.3165C11.0071 8.33392 11.0255 8.35871 11.035 8.38726C11.0456 8.41314 11.0474 8.44175 11.0402 8.46877C11.0331 8.4958 11.0173 8.5198 10.9953 8.53706L5.92268 12.8274C5.80536 12.9158 5.71516 13.0353 5.66222 13.1723C5.60928 13.3093 5.59576 13.4583 5.62318 13.6026C5.65269 13.749 5.72151 13.8845 5.82224 13.9947C5.92297 14.1049 6.0518 14.1856 6.19492 14.2281C6.33971 14.2717 6.4932 14.2776 6.64089 14.2452C6.78859 14.2128 6.92561 14.1433 7.0389 14.0431L13.6056 8.49297C13.7542 8.36902 13.874 8.21423 13.9566 8.03926C14.0392 7.86429 14.0827 7.67343 14.084 7.47994Z" fill="#232323"/>
</svg>
