<svg width="24" height="26" viewBox="0 0 24 26" fill="none" xmlns="http://www.w3.org/2000/svg">
<g clip-path="url(#clip0_39_1527)">
<path d="M20.7734 3.84862L14.1448 20.9068C13.997 21.2683 13.7422 21.4918 13.3804 21.5773C13.0186 21.6627 12.7052 21.5665 12.4402 21.2886L2.76466 11.1437C2.49962 10.8658 2.40784 10.5372 2.48934 10.1578C2.57086 9.77846 2.78402 9.51131 3.12883 9.35638L19.3977 2.4062C19.8293 2.23159 20.2081 2.31521 20.5341 2.65707C20.8602 2.99892 20.9399 3.39611 20.7734 3.84862ZM13.091 20.0528L19.3572 3.89106L3.94332 10.4612L7.49687 14.1872L12.9503 10.6088L9.5375 16.3268L13.091 20.0528Z" fill="#232323"/>
</g>
<defs>
<clipPath id="clip0_39_1527">
<rect width="24" height="25.1643" fill="white"/>
</clipPath>
</defs>
</svg>
