<svg width="32" height="33" viewBox="0 0 32 33" fill="none" xmlns="http://www.w3.org/2000/svg">
<g clip-path="url(#clip0_1108_6066)">
<path d="M6 5.44181C6 3.96181 7.18667 2.77515 8.66667 2.77515C10.1467 2.77515 11.3333 3.96181 11.3333 5.44181C11.3333 6.92181 10.1467 8.10848 8.66667 8.10848C7.18667 8.10848 6 6.92181 6 5.44181ZM13.3333 14.7085V12.1085C13.3333 10.6418 12.1333 9.44181 10.6667 9.44181H6.66667C5.2 9.44181 4 10.6418 4 12.1085V20.1085H6.66667V29.4418H11.3333V29.2951C9.68 27.6151 8.66667 25.3085 8.66667 22.7751C8.66667 19.3351 10.5467 16.3218 13.3333 14.7085ZM22 22.7751C22 24.9751 20.2 26.7751 18 26.7751C15.8 26.7751 14 24.9751 14 22.7751C14 21.2951 14.8133 20.0285 16 19.3351V16.4551C13.3067 17.3085 11.3333 19.8018 11.3333 22.7751C11.3333 26.4551 14.32 29.4418 18 29.4418C21.68 29.4418 24.6667 26.4551 24.6667 22.7751H22ZM26.0533 18.7751H20V10.7751H17.3333V21.4418H24.6133L27.9067 26.3885L30.12 24.9085L26.0533 18.7751Z" fill="#232323"/>
</g>
<defs>
<clipPath id="clip0_1108_6066">
<rect width="32" height="32" fill="white" transform="translate(0 0.108398)"/>
</clipPath>
</defs>
</svg>
